<svg width="12" height="13" viewBox="0 0 12 13" fill="none" xmlns="http://www.w3.org/2000/svg">
<path d="M8.19434 6.09473C8.43739 6.09473 8.64389 6.00956 8.81384 5.83923C8.98417 5.66928 9.06934 5.46278 9.06934 5.21973C9.06934 4.97667 8.98417 4.77017 8.81384 4.60023C8.64389 4.42989 8.43739 4.34473 8.19434 4.34473C7.95128 4.34473 7.74478 4.42989 7.57484 4.60023C7.4045 4.77017 7.31934 4.97667 7.31934 5.21973C7.31934 5.46278 7.4045 5.66928 7.57484 5.83923C7.74478 6.00956 7.95128 6.09473 8.19434 6.09473ZM4.111 6.09473C4.35406 6.09473 4.56056 6.00956 4.7305 5.83923C4.90084 5.66928 4.986 5.46278 4.986 5.21973C4.986 4.97667 4.90084 4.77017 4.7305 4.60023C4.56056 4.42989 4.35406 4.34473 4.111 4.34473C3.86795 4.34473 3.66145 4.42989 3.4915 4.60023C3.32117 4.77017 3.236 4.97667 3.236 5.21973C3.236 5.46278 3.32117 5.66928 3.4915 5.83923C3.66145 6.00956 3.86795 6.09473 4.111 6.09473ZM6.15267 9.88639C6.81378 9.88639 7.41423 9.69934 7.954 9.32523C8.49339 8.95073 8.88461 8.45723 9.12767 7.84473H8.16517C7.95128 8.20445 7.667 8.48873 7.31234 8.69756C6.95728 8.90678 6.57073 9.01139 6.15267 9.01139C5.73461 9.01139 5.34806 8.90678 4.993 8.69756C4.63834 8.48873 4.35406 8.20445 4.14017 7.84473H3.17767C3.42073 8.45723 3.81214 8.95073 4.35192 9.32523C4.89131 9.69934 5.49156 9.88639 6.15267 9.88639ZM6.15267 12.5114C5.34573 12.5114 4.58739 12.3582 3.87767 12.0517C3.16795 11.7457 2.55059 11.3301 2.02559 10.8051C1.50059 10.2801 1.08506 9.66278 0.779003 8.95306C0.472558 8.24334 0.319336 7.485 0.319336 6.67806C0.319336 5.87112 0.472558 5.11278 0.779003 4.40306C1.08506 3.69334 1.50059 3.07598 2.02559 2.55098C2.55059 2.02598 3.16795 1.61025 3.87767 1.30381C4.58739 0.997754 5.34573 0.844727 6.15267 0.844727C6.95961 0.844727 7.71795 0.997754 8.42767 1.30381C9.13739 1.61025 9.75475 2.02598 10.2798 2.55098C10.8048 3.07598 11.2203 3.69334 11.5263 4.40306C11.8328 5.11278 11.986 5.87112 11.986 6.67806C11.986 7.485 11.8328 8.24334 11.5263 8.95306C11.2203 9.66278 10.8048 10.2801 10.2798 10.8051C9.75475 11.3301 9.13739 11.7457 8.42767 12.0517C7.71795 12.3582 6.95961 12.5114 6.15267 12.5114ZM6.15267 11.3447C7.45545 11.3447 8.55892 10.8926 9.46309 9.98848C10.3673 9.08431 10.8193 7.98084 10.8193 6.67806C10.8193 5.37528 10.3673 4.27181 9.46309 3.36764C8.55892 2.46348 7.45545 2.01139 6.15267 2.01139C4.84989 2.01139 3.74642 2.46348 2.84225 3.36764C1.93809 4.27181 1.486 5.37528 1.486 6.67806C1.486 7.98084 1.93809 9.08431 2.84225 9.98848C3.74642 10.8926 4.84989 11.3447 6.15267 11.3447Z" fill="#696969"/>
</svg>
